<svg clip-rule="evenodd" fill-rule="evenodd" stroke-linejoin="round" stroke-miterlimit="2" viewBox="0 0 43 43" xmlns="http://www.w3.org/2000/svg" xmlns:xlink="http://www.w3.org/1999/xlink"><clipPath id="a"><path clip-rule="evenodd" d="m0-12.045h42.252v42.252h-42.252z"/></clipPath><g transform="translate(0 12.045)"><path d="m0-12.045h42.252v42.252h-42.252z" fill="none"/><g clip-path="url(#a)"><path d="m42.885 36.86h-5.445c-.315 0-.63.225-.72.54l-5.22 18.36-4.77-16.335c-.405-1.53-1.8-2.565-3.375-2.565h-1.665c-1.575 0-2.97 1.08-3.375 2.565l-4.77 16.335-5.22-18.36c-.09-.315-.405-.54-.72-.54h-5.445c-.495 0-.9.495-.72.99l7.47 23.31c.495 1.485 1.845 2.475 3.42 2.475h2.205c1.575 0 2.97-1.035 3.42-2.565l4.545-15.57 4.635 15.615c.45 1.485 1.845 2.565 3.42 2.565h2.205c1.575 0 2.925-.99 3.42-2.475l7.425-23.355c.18-.495-.225-.99-.72-.99z" fill="#f00" fill-rule="nonzero" transform="translate(-1.39646 -41.1889)"/></g></g></svg>